<?xml version="1.0" standalone="no"?>
<!DOCTYPE svg PUBLIC "-//W3C//DTD SVG 20010904//EN"
 "http://www.w3.org/TR/2001/REC-SVG-20010904/DTD/svg10.dtd">
<svg version="1.0" xmlns="http://www.w3.org/2000/svg"
 width="100.000000pt" height="100.000000pt" viewBox="0 0 100.000000 100.000000"
 preserveAspectRatio="xMidYMid meet">

<g transform="translate(0.000000,100.000000) scale(0.100000,-0.100000)"
fill="#000000" stroke="none">
<path d="M0 500 l0 -500 500 0 500 0 0 500 0 500 -500 0 -500 0 0 -500z m289
175 c36 -94 36 -95 13 -95 -27 0 -75 122 -61 157 5 14 11 24 13 22 2 -2 18
-40 35 -84z m618 62 c-3 -7 -26 -45 -51 -85 -32 -49 -53 -72 -66 -72 -11 0
-20 3 -20 6 0 3 20 37 45 75 25 38 45 72 45 74 0 10 -169 5 -197 -5 -15 -6
-34 -18 -40 -27 -11 -15 -13 -13 -13 15 l0 32 151 0 c120 0 150 -3 146 -13z
m-748 -217 c10 -22 10 -23 -1 -8 -13 15 -15 15 -26 0 -7 -9 -11 -12 -9 -7 2 6
7 19 11 29 7 21 9 21 25 -14z m86 16 c14 18 14 18 15 -11 0 -16 -4 -25 -8 -20
-4 6 -14 10 -22 10 -8 0 -18 -4 -22 -10 -4 -5 -8 4 -8 20 1 29 1 29 15 11 15
-20 15 -20 30 0z m84 -16 c10 -22 10 -23 -1 -8 -13 15 -15 15 -26 0 -7 -9 -11
-12 -9 -7 2 6 7 19 11 29 7 21 9 21 25 -14z m181 20 c0 -5 -5 -10 -11 -10 -5
0 -7 5 -4 10 3 6 8 10 11 10 2 0 4 -4 4 -10z m80 6 c0 -2 -7 -17 -15 -32 -9
-18 -15 -23 -15 -12 0 9 5 20 11 24 8 4 7 9 -2 15 -11 7 -10 9 4 9 9 0 17 -2
17 -4z m87 -12 c3 -9 -2 -23 -12 -32 -16 -16 -17 -16 -4 5 15 25 8 38 -17 29
-10 -4 -14 -12 -9 -24 5 -13 4 -14 -6 -5 -10 10 -9 15 1 28 16 19 39 19 47 -1z
m153 9 c-1 -12 -26 -43 -35 -43 -5 0 0 9 9 19 13 15 14 20 4 24 -8 4 -7 6 5 6
9 1 17 -2 17 -6z m-453 -35 c-3 -7 -5 -2 -5 12 0 14 2 19 5 13 2 -7 2 -19 0
-25z m363 -3 c5 3 10 14 11 23 0 11 2 12 6 4 3 -7 -1 -19 -7 -27 -15 -18 -40
-2 -39 24 0 10 3 8 10 -7 5 -13 13 -20 19 -17z m137 3 c-3 -7 -5 -2 -5 12 0
14 2 19 5 13 2 -7 2 -19 0 -25z m-357 4 c0 -4 -9 -8 -20 -8 -11 0 -20 4 -20 8
0 4 9 8 20 8 11 0 20 -4 20 -8z m-386 -79 c-4 -16 -7 -30 -6 -33 0 -48 22 -70
66 -70 39 0 71 30 92 87 l15 38 -6 -34 c-7 -46 -29 -77 -68 -101 -41 -25 -78
-25 -110 0 -33 26 -41 62 -23 105 18 43 50 49 40 8z m261 -38 c14 -33 32 -66
42 -72 14 -11 5 -13 -53 -12 -51 0 -63 3 -46 9 26 11 29 44 7 97 -19 45 -19
45 6 41 14 -2 27 -20 44 -63z m324 43 c-7 -13 -25 -42 -40 -65 -16 -23 -29
-44 -29 -47 0 -10 134 -6 175 5 22 6 48 18 58 27 16 14 17 13 17 -16 l0 -32
-150 0 c-82 0 -150 3 -150 6 0 4 19 37 43 75 32 51 48 68 65 69 20 0 22 -2 11
-22z"/>
</g>
</svg>
