<?xml version="1.0" encoding="UTF-8"?>
<svg xmlns="http://www.w3.org/2000/svg" xmlns:xlink="http://www.w3.org/1999/xlink" width="100px" height="100px" viewBox="0 0 100 100" version="1.1">
<g id="surface1">
<path style=" stroke:none;fill-rule:nonzero;fill:rgb(0%,0%,0%);fill-opacity:1;" d="M 50.300781 26 C 50.300781 34.859375 50.320312 38.480469 50.339844 34.058594 C 50.378906 29.621094 50.378906 22.378906 50.339844 17.960938 C 50.320312 13.519531 50.300781 17.140625 50.300781 26 Z M 50.300781 26 "/>
<path style=" stroke:none;fill-rule:nonzero;fill:rgb(0%,0%,0%);fill-opacity:1;" d="M 24.980469 24.71875 C 24.859375 25.039062 23.359375 28.980469 21.660156 33.5 C 19.960938 38 18.519531 41.761719 18.460938 41.839844 C 18.421875 41.941406 18.5 42 18.640625 42 C 18.800781 42 19.800781 39.578125 21.179688 35.839844 C 22.441406 32.460938 23.519531 29.621094 23.601562 29.539062 C 23.679688 29.460938 24.820312 32.21875 26.121094 35.679688 L 28.5 42 L 30.359375 42 C 31.359375 42 32.199219 41.980469 32.199219 41.941406 C 32.199219 41.699219 25.578125 24.5 25.421875 24.339844 C 25.28125 24.199219 25.140625 24.320312 24.980469 24.71875 Z M 24.980469 24.71875 "/>
<path style=" stroke:none;fill-rule:nonzero;fill:rgb(0%,0%,0%);fill-opacity:1;" d="M 61.199219 28.101562 C 61.199219 29.898438 61.28125 31 61.398438 31 C 61.519531 31 61.601562 30.800781 61.601562 30.539062 C 61.601562 29.359375 63.261719 27.839844 65.558594 26.960938 C 68.5 25.820312 69.199219 25.738281 78.441406 25.660156 L 87 25.578125 L 82.261719 33.039062 C 79.660156 37.140625 77.339844 40.839844 77.058594 41.238281 L 76.601562 42 L 80.738281 42 L 85.980469 33.71875 C 88.839844 29.179688 91.199219 25.398438 91.199219 25.320312 C 91.199219 25.261719 84.460938 25.199219 76.199219 25.199219 L 61.199219 25.199219 Z M 61.199219 28.101562 "/>
<path style=" stroke:none;fill-rule:nonzero;fill:rgb(0%,0%,0%);fill-opacity:1;" d="M 23.679688 40.761719 C 23.261719 41.078125 22.78125 41.480469 22.621094 41.660156 C 22.378906 41.960938 22.398438 42 22.660156 42 C 22.839844 42 23.101562 41.839844 23.238281 41.640625 C 24.199219 40.320312 26 40.261719 26 41.539062 C 26 41.800781 26.101562 42 26.199219 42 C 26.558594 42 26.421875 41.019531 26 40.601562 C 25.441406 40.039062 24.601562 40.101562 23.679688 40.761719 Z M 23.679688 40.761719 "/>
<path style=" stroke:none;fill-rule:nonzero;fill:rgb(0%,0%,0%);fill-opacity:1;" d="M 14.019531 45.640625 C 13.921875 45.898438 13.421875 46.980469 12.921875 48.078125 C 12.421875 49.160156 12 50.121094 12 50.21875 C 12 50.621094 12.339844 50.359375 12.660156 49.699219 L 13 49 L 15.980469 49 L 16.21875 49.699219 C 16.359375 50.078125 16.601562 50.398438 16.738281 50.398438 C 17.039062 50.398438 16.980469 50.238281 15.621094 47.339844 C 15.078125 46.160156 14.519531 45.199219 14.398438 45.199219 C 14.28125 45.199219 14.121094 45.398438 14.019531 45.640625 Z M 15.601562 48.421875 C 15.601562 48.519531 15.058594 48.601562 14.398438 48.601562 C 13.738281 48.601562 13.199219 48.558594 13.199219 48.519531 C 13.199219 48.480469 13.480469 47.839844 13.820312 47.101562 L 14.421875 45.761719 L 15.019531 47 C 15.339844 47.679688 15.601562 48.320312 15.601562 48.421875 Z M 15.601562 48.421875 "/>
<path style=" stroke:none;fill-rule:nonzero;fill:rgb(0%,0%,0%);fill-opacity:1;" d="M 20.320312 45.339844 C 20.261719 45.398438 20.199219 46.578125 20.199219 47.941406 C 20.199219 50 20.238281 50.398438 20.5 50.398438 C 20.738281 50.398438 20.800781 50.039062 20.800781 48.339844 L 20.800781 46.300781 L 21.761719 47.941406 C 22.28125 48.839844 22.761719 49.640625 22.839844 49.699219 C 22.898438 49.761719 23.398438 49.058594 23.921875 48.121094 C 24.460938 47.179688 24.960938 46.398438 25.058594 46.398438 C 25.140625 46.398438 25.199219 47.300781 25.199219 48.398438 C 25.199219 49.601562 25.28125 50.398438 25.398438 50.398438 C 25.519531 50.398438 25.601562 49.398438 25.601562 47.800781 C 25.601562 46.300781 25.519531 45.199219 25.421875 45.199219 C 25.300781 45.199219 24.71875 46.058594 24.101562 47.101562 C 23.5 48.140625 22.960938 49 22.898438 49 C 22.859375 49 22.359375 48.179688 21.78125 47.199219 C 20.71875 45.339844 20.539062 45.121094 20.320312 45.339844 Z M 20.320312 45.339844 "/>
<path style=" stroke:none;fill-rule:nonzero;fill:rgb(0%,0%,0%);fill-opacity:1;" d="M 31.019531 45.640625 C 30.921875 45.898438 30.421875 46.980469 29.921875 48.078125 C 29.421875 49.160156 29 50.121094 29 50.21875 C 29 50.621094 29.339844 50.359375 29.660156 49.699219 L 30 49 L 32.980469 49 L 33.21875 49.699219 C 33.359375 50.078125 33.601562 50.398438 33.738281 50.398438 C 34.039062 50.398438 33.980469 50.238281 32.621094 47.339844 C 32.078125 46.160156 31.519531 45.199219 31.398438 45.199219 C 31.28125 45.199219 31.121094 45.398438 31.019531 45.640625 Z M 32.5 48.179688 C 32.621094 48.578125 32.558594 48.601562 31.421875 48.601562 C 30.738281 48.601562 30.199219 48.558594 30.199219 48.519531 C 30.199219 48.480469 30.480469 47.839844 30.820312 47.101562 L 31.421875 45.738281 L 31.898438 46.738281 C 32.140625 47.300781 32.421875 47.941406 32.5 48.179688 Z M 32.5 48.179688 "/>
<path style=" stroke:none;fill-rule:nonzero;fill:rgb(0%,0%,0%);fill-opacity:1;" d="M 37.320312 45.339844 C 37.261719 45.398438 37.199219 46.578125 37.199219 47.941406 L 37.199219 50.398438 L 38.898438 50.398438 C 39.898438 50.398438 40.601562 50.320312 40.601562 50.199219 C 40.601562 50.078125 40 50 39.199219 50 L 37.800781 50 L 37.800781 47.71875 C 37.800781 45.621094 37.679688 45 37.320312 45.339844 Z M 37.320312 45.339844 "/>
<path style=" stroke:none;fill-rule:nonzero;fill:rgb(0%,0%,0%);fill-opacity:1;" d="M 49.621094 45.640625 C 49.519531 45.898438 49.019531 46.980469 48.519531 48.078125 C 48.019531 49.160156 47.601562 50.121094 47.601562 50.21875 C 47.601562 50.621094 47.941406 50.359375 48.261719 49.699219 L 48.601562 49 L 51.578125 49 L 51.820312 49.699219 C 51.960938 50.078125 52.199219 50.398438 52.339844 50.398438 C 52.640625 50.398438 52.578125 50.238281 51.21875 47.339844 C 50.679688 46.160156 50.121094 45.199219 50 45.199219 C 49.878906 45.199219 49.71875 45.398438 49.621094 45.640625 Z M 51.101562 48.179688 C 51.21875 48.578125 51.160156 48.601562 50.019531 48.601562 C 49.339844 48.601562 48.800781 48.558594 48.800781 48.519531 C 48.800781 48.480469 49.078125 47.839844 49.421875 47.101562 L 50.019531 45.738281 L 50.5 46.738281 C 50.738281 47.300781 51.019531 47.941406 51.101562 48.179688 Z M 51.101562 48.179688 "/>
<path style=" stroke:none;fill-rule:nonzero;fill:rgb(0%,0%,0%);fill-opacity:1;" d="M 55.398438 45.398438 C 55.398438 45.519531 56.058594 45.601562 57 45.601562 C 57.878906 45.601562 58.601562 45.679688 58.601562 45.78125 C 58.601562 45.859375 57.878906 46.859375 57 47.960938 C 56.121094 49.078125 55.398438 50.078125 55.398438 50.199219 C 55.398438 50.320312 56.179688 50.398438 57.5 50.398438 C 58.761719 50.398438 59.601562 50.320312 59.601562 50.199219 C 59.601562 50.078125 58.898438 50 57.898438 50 C 56.960938 50 56.199219 49.941406 56.199219 49.839844 C 56.199219 49.761719 56.921875 48.78125 57.800781 47.660156 C 58.679688 46.539062 59.398438 45.539062 59.398438 45.421875 C 59.398438 45.28125 58.699219 45.199219 57.398438 45.199219 C 56.199219 45.199219 55.398438 45.28125 55.398438 45.398438 Z M 55.398438 45.398438 "/>
<path style=" stroke:none;fill-rule:nonzero;fill:rgb(0%,0%,0%);fill-opacity:1;" d="M 64.058594 45.5 C 62.839844 46.019531 62.238281 47.78125 62.859375 49 C 63.21875 49.699219 64.339844 50.398438 65.140625 50.398438 C 66.101562 50.398438 67.160156 49.859375 67.5 49.179688 C 68.238281 47.78125 67.660156 46.058594 66.28125 45.480469 C 65.441406 45.140625 64.878906 45.140625 64.058594 45.5 Z M 66.199219 45.898438 C 67 46.320312 67.398438 46.960938 67.398438 47.859375 C 67.398438 48.480469 67.261719 48.78125 66.71875 49.320312 C 66 50.039062 65.300781 50.179688 64.320312 49.800781 C 63.71875 49.578125 63 48.5 63 47.839844 C 63 47.078125 63.578125 46.179688 64.261719 45.898438 C 65.101562 45.539062 65.5 45.539062 66.199219 45.898438 Z M 66.199219 45.898438 "/>
<path style=" stroke:none;fill-rule:nonzero;fill:rgb(0%,0%,0%);fill-opacity:1;" d="M 71.460938 45.519531 C 71.261719 46.039062 71.539062 49.101562 71.820312 49.558594 C 72.460938 50.558594 74.320312 50.640625 75.160156 49.699219 C 75.558594 49.238281 75.601562 48.960938 75.601562 47.179688 C 75.601562 46.101562 75.519531 45.199219 75.421875 45.199219 C 75.320312 45.199219 75.199219 46.101562 75.160156 47.21875 C 75.101562 49.058594 75.058594 49.28125 74.621094 49.621094 C 73.980469 50.140625 73.078125 50.101562 72.5 49.5 C 72.039062 49.058594 72 48.859375 72 47.101562 C 72 45.941406 71.921875 45.199219 71.800781 45.199219 C 71.679688 45.199219 71.539062 45.339844 71.460938 45.519531 Z M 71.460938 45.519531 "/>
<path style=" stroke:none;fill-rule:nonzero;fill:rgb(0%,0%,0%);fill-opacity:1;" d="M 79.300781 45.398438 C 79.238281 45.5 79.878906 45.601562 80.921875 45.640625 L 82.660156 45.699219 L 80.921875 47.878906 C 79.980469 49.078125 79.199219 50.140625 79.199219 50.238281 C 79.199219 50.320312 80.140625 50.398438 81.300781 50.398438 C 82.558594 50.398438 83.398438 50.320312 83.398438 50.199219 C 83.398438 50.078125 82.699219 50 81.699219 50 C 80.761719 50 80 49.941406 80 49.878906 C 80 49.820312 80.71875 48.859375 81.601562 47.738281 C 82.480469 46.621094 83.199219 45.601562 83.199219 45.460938 C 83.199219 45.140625 79.5 45.078125 79.300781 45.398438 Z M 79.300781 45.398438 "/>
<path style=" stroke:none;fill-rule:nonzero;fill:rgb(0%,0%,0%);fill-opacity:1;" d="M 86.921875 45.339844 C 86.859375 45.398438 86.800781 46.578125 86.800781 47.941406 C 86.800781 50 86.839844 50.398438 87.101562 50.398438 C 87.359375 50.398438 87.398438 50 87.398438 47.921875 C 87.398438 45.640625 87.28125 44.980469 86.921875 45.339844 Z M 86.921875 45.339844 "/>
<path style=" stroke:none;fill-rule:nonzero;fill:rgb(0%,0%,0%);fill-opacity:1;" d="M 10.460938 55.441406 C 7.960938 59.300781 8.019531 63.71875 10.621094 67.019531 C 12.398438 69.28125 16 70.140625 19.679688 69.199219 C 21.941406 68.621094 23.480469 67.738281 25.199219 66 C 27.921875 63.28125 29.140625 60.460938 30.078125 54.839844 C 30.199219 54.121094 29.859375 53.941406 29.71875 54.640625 C 28.660156 60.339844 26.660156 64.160156 23.71875 66.199219 C 21.398438 67.78125 18.359375 68.019531 15.921875 66.820312 C 14.421875 66.078125 13.78125 65.398438 12.921875 63.601562 C 12.339844 62.378906 12.300781 62.160156 12.320312 60.199219 C 12.339844 58.019531 12.699219 56.558594 13.601562 55.058594 C 13.820312 54.679688 14 54.339844 14 54.28125 C 14 54.238281 13.378906 54.199219 12.640625 54.199219 L 11.28125 54.199219 Z M 10.460938 55.441406 "/>
<path style=" stroke:none;fill-rule:nonzero;fill:rgb(0%,0%,0%);fill-opacity:1;" d="M 33.199219 54.28125 C 33.199219 54.320312 33.738281 55.761719 34.378906 57.460938 C 36.019531 61.699219 36.421875 63.101562 36.421875 64.519531 C 36.441406 66.898438 35.238281 68.039062 32.398438 68.339844 C 29.539062 68.621094 31.699219 68.800781 38.300781 68.800781 C 42.199219 68.800781 45.398438 68.71875 45.398438 68.640625 C 45.398438 68.558594 45 68.378906 44.5 68.238281 C 43.320312 67.921875 42.121094 66.699219 41.121094 64.800781 C 40.699219 64.019531 39.578125 61.320312 38.621094 58.839844 L 36.878906 54.300781 L 35.039062 54.238281 C 34.019531 54.21875 33.199219 54.21875 33.199219 54.28125 Z M 33.199219 54.28125 "/>
<path style=" stroke:none;fill-rule:nonzero;fill:rgb(0%,0%,0%);fill-opacity:1;" d="M 50.28125 57.699219 C 50.28125 59.679688 50.320312 60.460938 50.339844 59.441406 C 50.378906 58.421875 50.378906 56.800781 50.339844 55.839844 C 50.320312 54.878906 50.28125 55.71875 50.28125 57.699219 Z M 50.28125 57.699219 "/>
<path style=" stroke:none;fill-rule:nonzero;fill:rgb(0%,0%,0%);fill-opacity:1;" d="M 64.339844 61.378906 C 61.839844 65.339844 59.800781 68.621094 59.800781 68.679688 C 59.800781 68.738281 66.640625 68.800781 75 68.800781 L 90.199219 68.800781 L 90.199219 65.199219 C 90.199219 61.78125 90 60.640625 89.71875 62.398438 C 89.480469 63.878906 87.761719 65.378906 85.238281 66.339844 C 81.621094 67.699219 77.898438 68.199219 70.21875 68.339844 C 65.078125 68.441406 64.160156 68.421875 64.238281 68.179688 C 64.320312 67.960938 71.421875 56.679688 72.738281 54.660156 L 73.039062 54.199219 L 68.878906 54.199219 Z M 64.339844 61.378906 "/>
</g>
</svg>
