<?xml version="1.0" standalone="no"?>
<!DOCTYPE svg PUBLIC "-//W3C//DTD SVG 20010904//EN"
 "http://www.w3.org/TR/2001/REC-SVG-20010904/DTD/svg10.dtd">
<svg version="1.0" xmlns="http://www.w3.org/2000/svg"
 width="187.954" height="70.219" viewBox="0 0 187.954 70.219"
 preserveAspectRatio="xMidYMid meet">

<g transform="translate(0.000000,500.000000) scale(0.100000,-0.100000)"
fill="#000000" stroke="none">
<path d="M2515 3700 c0 -443 1 -624 2 -403 2 222 2 584 0 805 -1 222 -2 41 -2
-402z"/>
<path d="M1249 3764 c-6 -16 -81 -213 -166 -439 -85 -225 -157 -413 -160 -417
-2 -5 2 -8 9 -8 8 0 58 121 127 308 63 169 117 311 121 315 4 4 61 -134 126
-307 l119 -316 93 0 c50 0 92 1 92 3 0 12 -331 872 -339 880 -7 7 -14 1 -22
-19z"/>
<path d="M3060 3595 c0 -90 4 -145 10 -145 6 0 10 10 10 23 0 59 83 135 198
179 147 57 182 61 644 65 l428 4 -237 -373 c-130 -205 -246 -390 -260 -410
l-23 -38 103 0 104 0 262 414 c143 227 261 416 261 420 0 3 -337 6 -750 6
l-750 0 0 -145z"/>
<path d="M1184 2962 c-21 -16 -45 -36 -53 -45 -12 -15 -11 -17 2 -17 9 0 22 8
29 18 48 66 138 69 138 5 0 -13 5 -23 10 -23 18 0 11 49 -10 70 -28 28 -70 25
-116 -8z"/>
<path d="M701 2718 c-5 -13 -30 -67 -55 -122 -25 -54 -46 -102 -46 -107 0 -20
17 -7 33 26 l17 35 74 0 75 0 12 -35 c7 -19 19 -35 26 -35 15 0 12 8 -56 153
-27 59 -55 107 -61 107 -6 0 -14 -10 -19 -22z m79 -139 c0 -5 -27 -9 -60 -9
-33 0 -60 2 -60 4 0 2 14 34 31 71 l30 67 30 -62 c16 -34 29 -66 29 -71z"/>
<path d="M1016 2733 c-3 -3 -6 -62 -6 -130 0 -103 2 -123 15 -123 12 0 15 18
15 103 l0 102 48 -82 c26 -45 50 -85 54 -88 3 -3 28 32 54 79 27 47 52 86 57
86 4 0 7 -45 7 -100 0 -60 4 -100 10 -100 6 0 10 50 10 130 0 75 -4 130 -9
130 -6 0 -35 -43 -66 -95 -30 -52 -57 -95 -60 -95 -2 0 -27 41 -56 90 -53 93
-62 104 -73 93z"/>
<path d="M1551 2718 c-5 -13 -30 -67 -55 -122 -25 -54 -46 -102 -46 -107 0
-20 17 -7 33 26 l17 35 74 0 75 0 12 -35 c7 -19 19 -35 26 -35 15 0 12 8 -56
153 -27 59 -55 107 -61 107 -6 0 -14 -10 -19 -22z m74 -127 c6 -20 3 -21 -54
-21 -34 0 -61 2 -61 4 0 2 14 34 31 71 l30 68 24 -50 c12 -28 26 -60 30 -72z"/>
<path d="M1866 2733 c-3 -3 -6 -62 -6 -130 l0 -123 85 0 c50 0 85 4 85 10 0 6
-30 10 -70 10 l-70 0 0 114 c0 105 -6 136 -24 119z"/>
<path d="M2481 2718 c-5 -13 -30 -67 -55 -122 -25 -54 -46 -102 -46 -107 0
-20 17 -7 33 26 l17 35 74 0 75 0 12 -35 c7 -19 19 -35 26 -35 15 0 12 8 -56
153 -27 59 -55 107 -61 107 -6 0 -14 -10 -19 -22z m74 -127 c6 -20 3 -21 -54
-21 -34 0 -61 2 -61 4 0 2 14 34 31 71 l30 68 24 -50 c12 -28 26 -60 30 -72z"/>
<path d="M2770 2730 c0 -6 33 -10 80 -10 44 0 80 -4 80 -9 0 -4 -36 -54 -80
-109 -44 -56 -80 -106 -80 -112 0 -6 39 -10 105 -10 63 0 105 4 105 10 0 6
-35 10 -85 10 -47 0 -85 3 -85 8 0 4 36 53 80 109 44 56 80 106 80 112 0 7
-35 11 -100 11 -60 0 -100 -4 -100 -10z"/>
<path d="M3203 2725 c-61 -26 -91 -114 -60 -175 18 -35 74 -70 114 -70 48 0
101 27 118 61 37 70 8 156 -61 185 -42 17 -70 17 -111 -1z m107 -20 c40 -21
60 -53 60 -98 0 -31 -7 -46 -34 -73 -36 -36 -71 -43 -120 -24 -30 11 -66 65
-66 98 0 38 29 83 63 97 42 18 62 18 97 0z"/>
<path d="M3573 2724 c-10 -26 4 -179 18 -202 32 -50 125 -54 167 -7 20 23 22
37 22 126 0 54 -4 99 -9 99 -5 0 -11 -45 -13 -101 -3 -92 -5 -103 -27 -120
-32 -26 -77 -24 -106 6 -23 22 -25 32 -25 120 0 58 -4 95 -10 95 -6 0 -13 -7
-17 -16z"/>
<path d="M3965 2730 c-3 -5 29 -10 81 -12 l87 -3 -87 -109 c-47 -60 -86 -113
-86 -118 0 -4 47 -8 105 -8 63 0 105 4 105 10 0 6 -35 10 -85 10 -47 0 -85 3
-85 6 0 3 36 51 80 107 44 56 80 107 80 114 0 16 -185 19 -195 3z"/>
<path d="M4346 2733 c-3 -3 -6 -62 -6 -130 0 -103 2 -123 15 -123 13 0 15 20
15 124 0 114 -6 147 -24 129z"/>
<path d="M523 2228 c-125 -193 -122 -414 8 -579 89 -113 269 -156 453 -109
113 29 190 73 276 160 136 136 197 277 244 558 6 36 -11 45 -18 10 -53 -285
-153 -476 -300 -578 -116 -79 -268 -91 -390 -31 -75 37 -107 71 -150 161 -29
61 -31 72 -30 170 1 109 19 182 64 257 11 19 20 36 20 39 0 2 -31 4 -68 4
l-68 0 -41 -62z"/>
<path d="M1660 2286 c0 -2 27 -74 59 -159 82 -212 102 -282 102 -353 1 -119
-59 -176 -201 -191 -143 -14 -35 -23 295 -23 195 0 355 4 355 8 0 4 -20 13
-45 20 -59 16 -119 77 -169 172 -21 39 -77 174 -125 298 l-87 227 -92 3 c-51
1 -92 1 -92 -2z"/>
<path d="M2514 2115 c0 -99 2 -138 3 -87 2 51 2 132 0 180 -1 48 -3 6 -3 -93z"/>
<path d="M3217 1931 c-125 -198 -227 -362 -227 -365 0 -3 342 -6 760 -6 l760
0 0 180 c0 171 -10 228 -24 140 -12 -74 -98 -149 -224 -197 -181 -68 -367 -93
-751 -100 -257 -5 -303 -4 -299 8 4 11 359 575 425 676 l15 23 -104 0 -104 0
-227 -359z"/>
</g>
</svg>
